<mxfile host="app.diagrams.net" modified="2024-07-04T18:53:25.571Z" agent="Mozilla/5.0 (Windows NT 10.0; Win64; x64) AppleWebKit/537.36 (KHTML, like Gecko) Chrome/126.0.0.0 Safari/537.36" etag="DgZQaryh5ABFJjXTxDH3" version="24.6.4" type="device">
  <diagram name="Page-1" id="qBD3WyZXHX_IgGigsZ5z">
    <mxGraphModel dx="939" dy="914" grid="1" gridSize="10" guides="1" tooltips="1" connect="1" arrows="1" fold="1" page="1" pageScale="1" pageWidth="850" pageHeight="1100" math="0" shadow="0">
      <root>
        <mxCell id="0" />
        <mxCell id="1" parent="0" />
        <mxCell id="DP1IoGyj_X-YQ65H5wH2-1" value="Exception" style="ellipse;whiteSpace=wrap;html=1;fontSize=14;" vertex="1" parent="1">
          <mxGeometry x="100" y="410" width="90" height="50" as="geometry" />
        </mxCell>
        <mxCell id="DP1IoGyj_X-YQ65H5wH2-2" value="No FIN from opposite" style="ellipse;whiteSpace=wrap;html=1;fontSize=14;" vertex="1" parent="1">
          <mxGeometry x="220" y="310" width="110" height="60" as="geometry" />
        </mxCell>
        <mxCell id="DP1IoGyj_X-YQ65H5wH2-3" value="Has FIN from&lt;div style=&quot;font-size: 14px;&quot;&gt;opposite&lt;/div&gt;" style="ellipse;whiteSpace=wrap;html=1;fontSize=14;" vertex="1" parent="1">
          <mxGeometry x="240" y="500" width="110" height="60" as="geometry" />
        </mxCell>
        <mxCell id="DP1IoGyj_X-YQ65H5wH2-4" value="internet broken" style="whiteSpace=wrap;html=1;shape=partialRectangle;top=0;left=0;bottom=1;right=0;points=[[0,1],[1,1]];fillColor=none;align=center;verticalAlign=bottom;routingCenterY=0.5;snapToPoint=1;recursiveResize=0;autosize=1;treeFolding=1;treeMoving=1;newEdgeStyle={&quot;edgeStyle&quot;:&quot;entityRelationEdgeStyle&quot;,&quot;startArrow&quot;:&quot;none&quot;,&quot;endArrow&quot;:&quot;none&quot;,&quot;segment&quot;:10,&quot;curved&quot;:1,&quot;sourcePerimeterSpacing&quot;:0,&quot;targetPerimeterSpacing&quot;:0};fontSize=14;" vertex="1" parent="1">
          <mxGeometry x="365" y="280" width="119.5" height="30" as="geometry" />
        </mxCell>
        <mxCell id="DP1IoGyj_X-YQ65H5wH2-5" value="" style="edgeStyle=entityRelationEdgeStyle;startArrow=none;endArrow=none;segment=10;curved=1;sourcePerimeterSpacing=0;targetPerimeterSpacing=0;rounded=0;fontSize=14;" edge="1" target="DP1IoGyj_X-YQ65H5wH2-4" parent="1">
          <mxGeometry relative="1" as="geometry">
            <mxPoint x="330" y="340" as="sourcePoint" />
          </mxGeometry>
        </mxCell>
        <mxCell id="DP1IoGyj_X-YQ65H5wH2-8" value="system crash&lt;div style=&quot;font-size: 14px;&quot;&gt;(power off)&lt;/div&gt;" style="whiteSpace=wrap;html=1;shape=partialRectangle;top=0;left=0;bottom=1;right=0;points=[[0,1],[1,1]];fillColor=none;align=center;verticalAlign=bottom;routingCenterY=0.5;snapToPoint=1;recursiveResize=0;autosize=1;treeFolding=1;treeMoving=1;newEdgeStyle={&quot;edgeStyle&quot;:&quot;entityRelationEdgeStyle&quot;,&quot;startArrow&quot;:&quot;none&quot;,&quot;endArrow&quot;:&quot;none&quot;,&quot;segment&quot;:10,&quot;curved&quot;:1,&quot;sourcePerimeterSpacing&quot;:0,&quot;targetPerimeterSpacing&quot;:0};fontSize=14;" vertex="1" parent="1">
          <mxGeometry x="355.5" y="360" width="115" height="50" as="geometry" />
        </mxCell>
        <mxCell id="DP1IoGyj_X-YQ65H5wH2-9" value="" style="edgeStyle=entityRelationEdgeStyle;startArrow=none;endArrow=none;segment=10;curved=1;sourcePerimeterSpacing=0;targetPerimeterSpacing=0;rounded=0;exitX=1;exitY=0.5;exitDx=0;exitDy=0;fontSize=14;" edge="1" parent="1">
          <mxGeometry relative="1" as="geometry">
            <mxPoint x="330" y="339.72" as="sourcePoint" />
            <mxPoint x="355.1428571428571" y="410.0028571428571" as="targetPoint" />
          </mxGeometry>
        </mxCell>
        <mxCell id="DP1IoGyj_X-YQ65H5wH2-10" value="read TIMEOUT(setsockopt)" style="whiteSpace=wrap;html=1;shape=partialRectangle;top=0;left=0;bottom=1;right=0;points=[[0,1],[1,1]];fillColor=none;align=center;verticalAlign=bottom;routingCenterY=0.5;snapToPoint=1;recursiveResize=0;autosize=1;treeFolding=1;treeMoving=1;newEdgeStyle={&quot;edgeStyle&quot;:&quot;entityRelationEdgeStyle&quot;,&quot;startArrow&quot;:&quot;none&quot;,&quot;endArrow&quot;:&quot;none&quot;,&quot;segment&quot;:10,&quot;curved&quot;:1,&quot;sourcePerimeterSpacing&quot;:0,&quot;targetPerimeterSpacing&quot;:0};fontSize=14;" vertex="1" parent="1">
          <mxGeometry x="510" y="240" width="210" height="30" as="geometry" />
        </mxCell>
        <mxCell id="DP1IoGyj_X-YQ65H5wH2-11" value="" style="edgeStyle=entityRelationEdgeStyle;startArrow=none;endArrow=none;segment=10;curved=1;sourcePerimeterSpacing=0;targetPerimeterSpacing=0;rounded=0;fontSize=14;" edge="1" target="DP1IoGyj_X-YQ65H5wH2-10" parent="1">
          <mxGeometry relative="1" as="geometry">
            <mxPoint x="480" y="310" as="sourcePoint" />
          </mxGeometry>
        </mxCell>
        <mxCell id="DP1IoGyj_X-YQ65H5wH2-14" value="write UnReachable" style="whiteSpace=wrap;html=1;shape=partialRectangle;top=0;left=0;bottom=1;right=0;points=[[0,1],[1,1]];fillColor=none;align=center;verticalAlign=bottom;routingCenterY=0.5;snapToPoint=1;recursiveResize=0;autosize=1;treeFolding=1;treeMoving=1;newEdgeStyle={&quot;edgeStyle&quot;:&quot;entityRelationEdgeStyle&quot;,&quot;startArrow&quot;:&quot;none&quot;,&quot;endArrow&quot;:&quot;none&quot;,&quot;segment&quot;:10,&quot;curved&quot;:1,&quot;sourcePerimeterSpacing&quot;:0,&quot;targetPerimeterSpacing&quot;:0};fontSize=14;" vertex="1" parent="1">
          <mxGeometry x="520" y="320" width="160" height="30" as="geometry" />
        </mxCell>
        <mxCell id="DP1IoGyj_X-YQ65H5wH2-15" value="" style="edgeStyle=entityRelationEdgeStyle;startArrow=none;endArrow=none;segment=10;curved=1;sourcePerimeterSpacing=0;targetPerimeterSpacing=0;rounded=0;fontSize=14;" edge="1" target="DP1IoGyj_X-YQ65H5wH2-14" parent="1">
          <mxGeometry relative="1" as="geometry">
            <mxPoint x="480" y="310" as="sourcePoint" />
          </mxGeometry>
        </mxCell>
        <mxCell id="DP1IoGyj_X-YQ65H5wH2-16" value="write, then read,&amp;nbsp;&lt;div style=&quot;font-size: 14px;&quot;&gt;send try 9 times, untill TIMEOUT&lt;/div&gt;" style="whiteSpace=wrap;html=1;shape=partialRectangle;top=0;left=0;bottom=1;right=0;points=[[0,1],[1,1]];fillColor=none;align=center;verticalAlign=bottom;routingCenterY=0.5;snapToPoint=1;recursiveResize=0;autosize=1;treeFolding=1;treeMoving=1;newEdgeStyle={&quot;edgeStyle&quot;:&quot;entityRelationEdgeStyle&quot;,&quot;startArrow&quot;:&quot;none&quot;,&quot;endArrow&quot;:&quot;none&quot;,&quot;segment&quot;:10,&quot;curved&quot;:1,&quot;sourcePerimeterSpacing&quot;:0,&quot;targetPerimeterSpacing&quot;:0};fontSize=14;" vertex="1" parent="1">
          <mxGeometry x="505" y="270" width="240" height="50" as="geometry" />
        </mxCell>
        <mxCell id="DP1IoGyj_X-YQ65H5wH2-17" value="" style="edgeStyle=entityRelationEdgeStyle;startArrow=none;endArrow=none;segment=10;curved=1;sourcePerimeterSpacing=0;targetPerimeterSpacing=0;rounded=0;fontSize=14;" edge="1" target="DP1IoGyj_X-YQ65H5wH2-16" parent="1">
          <mxGeometry relative="1" as="geometry">
            <mxPoint x="480" y="310" as="sourcePoint" />
          </mxGeometry>
        </mxCell>
        <mxCell id="DP1IoGyj_X-YQ65H5wH2-19" value="try many time, utill TIMEOUT" style="whiteSpace=wrap;html=1;shape=partialRectangle;top=0;left=0;bottom=1;right=0;points=[[0,1],[1,1]];fillColor=none;align=center;verticalAlign=bottom;routingCenterY=0.5;snapToPoint=1;recursiveResize=0;autosize=1;treeFolding=1;treeMoving=1;newEdgeStyle={&quot;edgeStyle&quot;:&quot;entityRelationEdgeStyle&quot;,&quot;startArrow&quot;:&quot;none&quot;,&quot;endArrow&quot;:&quot;none&quot;,&quot;segment&quot;:10,&quot;curved&quot;:1,&quot;sourcePerimeterSpacing&quot;:0,&quot;targetPerimeterSpacing&quot;:0};fontSize=14;" vertex="1" parent="1">
          <mxGeometry x="510" y="360" width="220" height="30" as="geometry" />
        </mxCell>
        <mxCell id="DP1IoGyj_X-YQ65H5wH2-20" value="" style="edgeStyle=entityRelationEdgeStyle;startArrow=none;endArrow=none;segment=10;curved=1;sourcePerimeterSpacing=0;targetPerimeterSpacing=0;rounded=0;fontSize=14;" edge="1" target="DP1IoGyj_X-YQ65H5wH2-19" parent="1">
          <mxGeometry relative="1" as="geometry">
            <mxPoint x="470" y="410" as="sourcePoint" />
          </mxGeometry>
        </mxCell>
        <mxCell id="DP1IoGyj_X-YQ65H5wH2-21" value="No read" style="whiteSpace=wrap;html=1;shape=partialRectangle;top=0;left=0;bottom=1;right=0;points=[[0,1],[1,1]];fillColor=none;align=center;verticalAlign=bottom;routingCenterY=0.5;snapToPoint=1;recursiveResize=0;autosize=1;treeFolding=1;treeMoving=1;newEdgeStyle={&quot;edgeStyle&quot;:&quot;entityRelationEdgeStyle&quot;,&quot;startArrow&quot;:&quot;none&quot;,&quot;endArrow&quot;:&quot;none&quot;,&quot;segment&quot;:10,&quot;curved&quot;:1,&quot;sourcePerimeterSpacing&quot;:0,&quot;targetPerimeterSpacing&quot;:0};fontSize=14;" vertex="1" parent="1">
          <mxGeometry x="380.5" y="520" width="90" height="30" as="geometry" />
        </mxCell>
        <mxCell id="DP1IoGyj_X-YQ65H5wH2-22" value="" style="edgeStyle=entityRelationEdgeStyle;startArrow=none;endArrow=none;segment=10;curved=1;sourcePerimeterSpacing=0;targetPerimeterSpacing=0;rounded=0;fontSize=14;" edge="1" parent="1" target="DP1IoGyj_X-YQ65H5wH2-21">
          <mxGeometry relative="1" as="geometry">
            <mxPoint x="350" y="530" as="sourcePoint" />
          </mxGeometry>
        </mxCell>
        <mxCell id="DP1IoGyj_X-YQ65H5wH2-23" value="get FIN throw read" style="whiteSpace=wrap;html=1;shape=partialRectangle;top=0;left=0;bottom=1;right=0;points=[[0,1],[1,1]];fillColor=none;align=center;verticalAlign=bottom;routingCenterY=0.5;snapToPoint=1;recursiveResize=0;autosize=1;treeFolding=1;treeMoving=1;newEdgeStyle={&quot;edgeStyle&quot;:&quot;entityRelationEdgeStyle&quot;,&quot;startArrow&quot;:&quot;none&quot;,&quot;endArrow&quot;:&quot;none&quot;,&quot;segment&quot;:10,&quot;curved&quot;:1,&quot;sourcePerimeterSpacing&quot;:0,&quot;targetPerimeterSpacing&quot;:0};fontSize=14;" vertex="1" parent="1">
          <mxGeometry x="367.5" y="440" width="160" height="30" as="geometry" />
        </mxCell>
        <mxCell id="DP1IoGyj_X-YQ65H5wH2-24" value="" style="edgeStyle=entityRelationEdgeStyle;startArrow=none;endArrow=none;segment=10;curved=1;sourcePerimeterSpacing=0;targetPerimeterSpacing=0;rounded=0;exitX=1;exitY=0.5;exitDx=0;exitDy=0;fontSize=14;" edge="1" parent="1" target="DP1IoGyj_X-YQ65H5wH2-23">
          <mxGeometry relative="1" as="geometry">
            <mxPoint x="350" y="529.86" as="sourcePoint" />
          </mxGeometry>
        </mxCell>
        <mxCell id="DP1IoGyj_X-YQ65H5wH2-25" value="write--&amp;gt;RST, then read know RST" style="whiteSpace=wrap;html=1;shape=partialRectangle;top=0;left=0;bottom=1;right=0;points=[[0,1],[1,1]];fillColor=none;align=center;verticalAlign=bottom;routingCenterY=0.5;snapToPoint=1;recursiveResize=0;autosize=1;treeFolding=1;treeMoving=1;newEdgeStyle={&quot;edgeStyle&quot;:&quot;entityRelationEdgeStyle&quot;,&quot;startArrow&quot;:&quot;none&quot;,&quot;endArrow&quot;:&quot;none&quot;,&quot;segment&quot;:10,&quot;curved&quot;:1,&quot;sourcePerimeterSpacing&quot;:0,&quot;targetPerimeterSpacing&quot;:0};fontSize=14;" vertex="1" parent="1">
          <mxGeometry x="490" y="480" width="250" height="30" as="geometry" />
        </mxCell>
        <mxCell id="DP1IoGyj_X-YQ65H5wH2-26" value="" style="edgeStyle=entityRelationEdgeStyle;startArrow=none;endArrow=none;segment=10;curved=1;sourcePerimeterSpacing=0;targetPerimeterSpacing=0;rounded=0;fontSize=14;" edge="1" parent="1" target="DP1IoGyj_X-YQ65H5wH2-25">
          <mxGeometry relative="1" as="geometry">
            <mxPoint x="467.5" y="550" as="sourcePoint" />
          </mxGeometry>
        </mxCell>
        <mxCell id="DP1IoGyj_X-YQ65H5wH2-29" value="write--&amp;gt;RST, write again,&amp;nbsp;&lt;div&gt;&amp;nbsp;generate SIGPIPE&lt;/div&gt;" style="whiteSpace=wrap;html=1;shape=partialRectangle;top=0;left=0;bottom=1;right=0;points=[[0,1],[1,1]];fillColor=none;align=center;verticalAlign=bottom;routingCenterY=0.5;snapToPoint=1;recursiveResize=0;autosize=1;treeFolding=1;treeMoving=1;newEdgeStyle={&quot;edgeStyle&quot;:&quot;entityRelationEdgeStyle&quot;,&quot;startArrow&quot;:&quot;none&quot;,&quot;endArrow&quot;:&quot;none&quot;,&quot;segment&quot;:10,&quot;curved&quot;:1,&quot;sourcePerimeterSpacing&quot;:0,&quot;targetPerimeterSpacing&quot;:0};fontSize=14;" vertex="1" parent="1">
          <mxGeometry x="500" y="530" width="200" height="50" as="geometry" />
        </mxCell>
        <mxCell id="DP1IoGyj_X-YQ65H5wH2-30" value="" style="edgeStyle=entityRelationEdgeStyle;startArrow=none;endArrow=none;segment=10;curved=1;sourcePerimeterSpacing=0;targetPerimeterSpacing=0;rounded=0;fontSize=14;" edge="1" parent="1" target="DP1IoGyj_X-YQ65H5wH2-29">
          <mxGeometry relative="1" as="geometry">
            <mxPoint x="467.5" y="550" as="sourcePoint" />
          </mxGeometry>
        </mxCell>
        <mxCell id="DP1IoGyj_X-YQ65H5wH2-34" value="Opposite reset, return RST" style="whiteSpace=wrap;html=1;shape=partialRectangle;top=0;left=0;bottom=1;right=0;points=[[0,1],[1,1]];fillColor=none;align=center;verticalAlign=bottom;routingCenterY=0.5;snapToPoint=1;recursiveResize=0;autosize=1;treeFolding=1;treeMoving=1;newEdgeStyle={&quot;edgeStyle&quot;:&quot;entityRelationEdgeStyle&quot;,&quot;startArrow&quot;:&quot;none&quot;,&quot;endArrow&quot;:&quot;none&quot;,&quot;segment&quot;:10,&quot;curved&quot;:1,&quot;sourcePerimeterSpacing&quot;:0,&quot;targetPerimeterSpacing&quot;:0};fontSize=14;" vertex="1" parent="1">
          <mxGeometry x="520" y="410" width="210" height="30" as="geometry" />
        </mxCell>
        <mxCell id="DP1IoGyj_X-YQ65H5wH2-35" value="" style="edgeStyle=entityRelationEdgeStyle;startArrow=none;endArrow=none;segment=10;curved=1;sourcePerimeterSpacing=0;targetPerimeterSpacing=0;rounded=0;fontSize=14;" edge="1" target="DP1IoGyj_X-YQ65H5wH2-34" parent="1">
          <mxGeometry relative="1" as="geometry">
            <mxPoint x="470" y="410" as="sourcePoint" />
          </mxGeometry>
        </mxCell>
        <mxCell id="DP1IoGyj_X-YQ65H5wH2-38" value="" style="endArrow=classic;html=1;rounded=0;exitX=0.667;exitY=0;exitDx=0;exitDy=0;exitPerimeter=0;fontSize=14;entryX=0.091;entryY=0.74;entryDx=0;entryDy=0;entryPerimeter=0;" edge="1" parent="1" source="DP1IoGyj_X-YQ65H5wH2-1" target="DP1IoGyj_X-YQ65H5wH2-2">
          <mxGeometry width="50" height="50" relative="1" as="geometry">
            <mxPoint x="180" y="390" as="sourcePoint" />
            <mxPoint x="230" y="340" as="targetPoint" />
          </mxGeometry>
        </mxCell>
        <mxCell id="DP1IoGyj_X-YQ65H5wH2-39" value="" style="endArrow=classic;html=1;rounded=0;fontSize=14;" edge="1" parent="1" source="DP1IoGyj_X-YQ65H5wH2-1">
          <mxGeometry width="50" height="50" relative="1" as="geometry">
            <mxPoint x="190" y="580" as="sourcePoint" />
            <mxPoint x="240" y="530" as="targetPoint" />
          </mxGeometry>
        </mxCell>
      </root>
    </mxGraphModel>
  </diagram>
</mxfile>
